<svg width="597" height="348" viewBox="0 0 597 348" fill="none" xmlns="http://www.w3.org/2000/svg">
<path d="M397.049 134.182C375.535 134.182 362.309 152.644 350.785 173.787C335.728 145.435 323.687 112.468 297.787 112.741C277.11 112.959 269.241 141.597 260.16 172.709C249.424 136.265 236.162 97.4263 198.525 97.4263C145.898 97.4263 142.88 148.05 125.395 174.147C119.267 164.923 111.455 158.685 99.2626 158.685C52.4675 158.685 40.9423 174 0.000305176 174C41.1234 174 51.7585 189.315 99.2626 189.315C111.507 189.315 119.323 183.21 125.395 174.147C142.789 200.329 146.62 250.574 198.525 250.574C236.733 250.574 249.311 209.876 260.16 172.709C269.648 204.919 277.163 235.259 297.787 235.259C322.959 235.259 335.344 202.116 350.785 173.787C362.108 195.108 375.138 213.818 397.049 213.818C431.479 213.818 452.041 190.133 470.263 174.711C478.564 181.425 486.814 186.252 496.312 186.252C527.508 186.252 562.089 174 596.992 174C552.972 174 523.963 161.748 496.312 161.748C487.31 161.748 479.059 167.267 470.263 174.711C451.299 159.372 432.063 134.182 397.049 134.182Z" fill="#9A93FC" fill-opacity="0.15" stroke="white" stroke-opacity="0.8" stroke-width="1.41803"/>
<path d="M0 174C86.4389 174 91.8766 139.4 118.832 139.4C126.765 139.4 136.094 154.29 146.554 175.334C172.877 124.861 205.067 34.8214 237.664 35.6C258.92 36.1077 270.975 104.796 285.033 177.525C300.695 93.3923 318.034 1 356.495 1C408.973 1 422.906 115.268 445.956 174.252C454.05 153.455 463.18 139.4 475.327 139.4C522.011 139.4 554.729 174 595.574 174C554.548 174 522.719 208.6 475.327 208.6C463.096 208.6 453.974 194.771 445.956 174.252C422.942 233.38 408.301 347 356.495 347C319.35 347 300.914 259.685 285.033 177.525C271.892 248.116 259.931 312.893 237.664 312.4C203.221 311.637 171.635 225.795 146.554 175.334C136.319 194.957 126.972 208.6 118.832 208.6C89.7546 208.6 86.2945 174 0 174Z" fill="#9A93FC" fill-opacity="0.3" stroke="white" stroke-opacity="0.8" stroke-width="1.41803"/>
<path d="M596.992 174C510.553 174 505.115 162.323 478.16 162.323C470.227 162.323 460.899 167.348 450.439 174.451C424.115 157.416 391.925 127.028 359.328 127.29C338.072 127.462 326.017 150.644 311.959 175.19C296.297 146.795 278.958 115.613 240.497 115.613C188.019 115.613 174.086 154.178 151.037 174.085C142.942 167.066 133.812 162.323 121.665 162.323C74.981 162.323 42.2631 174 1.41827 174C42.4437 174 74.2737 185.678 121.665 185.678C133.896 185.678 143.018 181.011 151.037 174.085C174.05 194.041 188.692 232.388 240.497 232.388C277.642 232.388 296.078 202.919 311.959 175.19C325.1 199.015 337.061 220.877 359.328 220.71C393.771 220.453 425.357 191.481 450.439 174.451C460.673 181.073 470.02 185.678 478.16 185.678C507.237 185.678 510.698 174 596.992 174Z" fill="#9A93FC" fill-opacity="0.25" stroke="white" stroke-opacity="0.8" stroke-width="1.41803"/>
<path d="M596.992 174C510.553 174 505.115 152.375 478.16 152.375C470.227 152.375 460.899 161.681 450.439 174.834C424.115 143.288 391.925 87.0131 359.328 87.4997C338.072 87.8171 326.017 130.748 311.959 176.203C296.297 123.62 278.958 65.8748 240.497 65.8748C188.019 65.8748 174.086 137.292 151.037 174.157C142.942 161.159 133.812 152.375 121.665 152.375C74.981 152.375 42.2631 174 1.41827 174C42.4437 174 74.2737 195.625 121.665 195.625C133.896 195.625 143.018 186.982 151.037 174.157C174.05 211.112 188.692 282.125 240.497 282.125C277.642 282.125 296.078 227.553 311.959 176.203C325.1 220.323 337.061 260.808 359.328 260.5C393.771 260.023 425.357 206.372 450.439 174.834C460.673 187.098 470.02 195.625 478.16 195.625C507.237 195.625 510.698 174 596.992 174Z" fill="#9A93FC" fill-opacity="0.3" stroke="white" stroke-opacity="0.8" stroke-width="1.41803"/>
</svg>
